<svg width="24" height="31" viewBox="0 0 24 31" fill="none" xmlns="http://www.w3.org/2000/svg">
<path fill-rule="evenodd" clip-rule="evenodd" d="M9.58601 18.8515C10.1164 18.8516 10.625 19.1165 11 19.5879L12 20.8447L13 19.5879C13.375 19.1165 13.8836 18.8516 14.414 18.8515H18.438C19.1069 18.8516 19.7566 19.1326 20.2839 19.65C20.8111 20.1673 21.1857 20.8913 21.348 21.7068L21.97 24.8312C22.0044 24.9923 22.0129 25.1605 21.9951 25.3258C21.9772 25.4911 21.9334 25.6504 21.866 25.7942C21.7987 25.938 21.7093 26.0635 21.6029 26.1634C21.4966 26.2633 21.3755 26.3356 21.2467 26.3761C21.1179 26.4165 20.984 26.4244 20.8527 26.3991C20.7215 26.3738 20.5956 26.316 20.4823 26.2289C20.3691 26.1418 20.2708 26.0273 20.1931 25.892C20.1154 25.7566 20.06 25.6032 20.03 25.4407L19.409 22.3176C19.355 22.0456 19.2302 21.8041 19.0545 21.6315C18.8787 21.4589 18.6621 21.3651 18.439 21.365H14.414L13.414 22.6218C13.039 23.093 12.5303 23.3577 12 23.3577C11.4697 23.3577 10.9611 23.093 10.586 22.6218L9.58601 21.365H5.56201C5.33894 21.3651 5.12231 21.4589 4.94654 21.6315C4.77078 21.8041 4.64599 22.0456 4.59201 22.3176L3.97001 25.4407C3.94002 25.6032 3.88458 25.7566 3.80692 25.892C3.72926 26.0273 3.63093 26.1418 3.51768 26.2289C3.40442 26.316 3.2785 26.3738 3.14727 26.3991C3.01604 26.4244 2.88211 26.4165 2.75331 26.3761C2.62451 26.3356 2.50341 26.2633 2.39708 26.1634C2.29075 26.0635 2.20131 25.938 2.13398 25.7942C2.06665 25.6504 2.02278 25.4911 2.00493 25.3258C1.98708 25.1605 1.9956 24.9923 2.03001 24.8312L2.65101 21.7068C2.81333 20.8913 3.18788 20.1673 3.71513 19.65C4.24238 19.1326 4.89209 18.8516 5.56101 18.8515H9.58601ZM12 2.51352C12.784 2.51352 13.661 2.7523 14.38 3.00491C16.043 3.5868 17 5.54232 17 7.53681V12.5714C17 14.5672 16.043 16.5214 14.38 17.1033C13.661 17.3547 12.784 17.5947 12 17.5947C11.216 17.5947 10.339 17.3559 9.62001 17.1033C7.95701 16.5214 7.00001 14.5672 7.00001 12.5714V7.53681C7.00001 5.54232 7.95701 3.5868 9.62001 3.00491C10.339 2.75356 11.216 2.51352 12 2.51352ZM12 5.02705C11.491 5.02705 10.823 5.19294 10.157 5.4267C9.48901 5.66046 9.00001 6.49118 9.00001 7.53681V12.5714C9.00001 13.617 9.48901 14.4478 10.157 14.6828C10.823 14.9153 11.491 15.0812 12 15.0812C12.509 15.0812 13.177 14.9153 13.843 14.6815C14.511 14.4478 15 13.617 15 12.5714V7.53681C15 6.49118 14.511 5.66046 13.843 5.42544C13.177 5.1942 12.51 5.02705 12 5.02705Z" fill="black"/>
</svg>
