<svg width="36" height="36" viewBox="0 0 36 36" fill="none" xmlns="http://www.w3.org/2000/svg">
<path d="M26.2209 2H8.92025C7.08488 2 5.32469 2.72909 4.02689 4.02689C2.72909 5.32469 2 7.08488 2 8.92025V26.2209C2 28.0562 2.72909 29.8164 4.02689 31.1142C5.32469 32.412 7.08488 33.1411 8.92025 33.1411H26.2209C28.0562 33.1411 29.8164 32.412 31.1142 31.1142C32.412 29.8164 33.1411 28.0562 33.1411 26.2209V8.92025C33.1411 7.08488 32.412 5.32469 31.1142 4.02689C29.8164 2.72909 28.0562 2 26.2209 2Z" stroke="black" stroke-width="4" stroke-linejoin="round"/>
<path d="M17.5706 24.4909C19.406 24.4909 21.1662 23.7618 22.464 22.464C23.7618 21.1662 24.4909 19.406 24.4909 17.5706C24.4909 15.7353 23.7618 13.9751 22.464 12.6773C21.1662 11.3795 19.406 10.6504 17.5706 10.6504C15.7353 10.6504 13.9751 11.3795 12.6773 12.6773C11.3795 13.9751 10.6504 15.7353 10.6504 17.5706C10.6504 19.406 11.3795 21.1662 12.6773 22.464C13.9751 23.7618 15.7353 24.4909 17.5706 24.4909Z" stroke="black" stroke-width="4" stroke-linejoin="round"/>
<path d="M27.086 9.78532C27.5449 9.78532 27.9849 9.60304 28.3094 9.27859C28.6338 8.95414 28.8161 8.5141 28.8161 8.05526C28.8161 7.59642 28.6338 7.15637 28.3094 6.83192C27.9849 6.50747 27.5449 6.3252 27.086 6.3252C26.6272 6.3252 26.1871 6.50747 25.8627 6.83192C25.5382 7.15637 25.356 7.59642 25.356 8.05526C25.356 8.5141 25.5382 8.95414 25.8627 9.27859C26.1871 9.60304 26.6272 9.78532 27.086 9.78532Z" fill="black"/>
</svg>
